<?xml version="1.0" encoding="UTF-8" standalone="no"?>
<!-- Created with Inkscape (http://www.inkscape.org/) -->

<svg
   xmlns:dc="http://purl.org/dc/elements/1.1/"
   xmlns:cc="http://creativecommons.org/ns#"
   xmlns:rdf="http://www.w3.org/1999/02/22-rdf-syntax-ns#"
   xmlns:svg="http://www.w3.org/2000/svg"
   xmlns="http://www.w3.org/2000/svg"
   xmlns:sodipodi="http://sodipodi.sourceforge.net/DTD/sodipodi-0.dtd"
   xmlns:inkscape="http://www.inkscape.org/namespaces/inkscape"
   width="158.74989mm"
   height="24.708521mm"
   viewBox="0 0 158.74989 24.708521"
   version="1.1"
   id="svg45226"
   inkscape:version="0.92.1 r15371"
   sodipodi:docname="Oslobođenje_(2019-07-27).svg">
  <defs
     id="defs45220" />
  <sodipodi:namedview
     id="base"
     pagecolor="#ffffff"
     bordercolor="#666666"
     borderopacity="1.0"
     inkscape:pageopacity="0.0"
     inkscape:pageshadow="2"
     inkscape:zoom="0.35"
     inkscape:cx="963.73807"
     inkscape:cy="149.99999"
     inkscape:document-units="mm"
     inkscape:current-layer="layer1"
     showgrid="false"
     fit-margin-top="0"
     fit-margin-left="0"
     fit-margin-right="0"
     fit-margin-bottom="0"
     inkscape:window-width="1920"
     inkscape:window-height="1001"
     inkscape:window-x="-9"
     inkscape:window-y="-9"
     inkscape:window-maximized="1" />
  <metadata
     id="metadata45223">
    <rdf:RDF>
      <cc:Work
         rdf:about="">
        <dc:format>image/svg+xml</dc:format>
        <dc:type
           rdf:resource="http://purl.org/dc/dcmitype/StillImage" />
        <dc:title></dc:title>
      </cc:Work>
    </rdf:RDF>
  </metadata>
  <g
     inkscape:label="Ebene 1"
     inkscape:groupmode="layer"
     id="layer1"
     transform="translate(359.31046,-163.81231)">
    <path
       inkscape:connector-curvature="0"
       style="fill:#d71c1e;fill-opacity:1;fill-rule:nonzero;stroke:none;stroke-width:0.26436114"
       d="m -228.2276,188.23065 h -3.42018 c -0.0847,0 -0.15903,-0.0578 -0.18071,-0.13941 l -5.34918,-20.32792 v 18.03542 c 0,0.66194 0.18897,0.94282 0.41718,1.21544 0.24785,0.29844 0.79929,0.44921 1.63987,0.44921 0.10327,0 0.18795,0.0847 0.18795,0.18794 v 0.39241 c 0,0.10327 -0.0847,0.18691 -0.18795,0.18691 h -4.91546 c -0.10327,0 -0.18795,-0.0836 -0.18795,-0.18691 v -0.39241 c 0,-0.10223 0.0816,-0.18484 0.18381,-0.18794 1.40856,-0.03 1.79373,-0.61753 1.79373,-2.73242 v -19.86736 h -1.41577 c -0.10327,0 -0.18692,-0.0837 -0.18692,-0.18691 v -0.39241 c 0,-0.10327 0.0836,-0.18692 0.18692,-0.18692 h 6.62556 c 0.0847,0 0.16006,0.0568 0.1807,0.13941 l 3.7465,14.33437 v -12.43943 c 0,-0.86538 -0.38209,-1.26811 -1.20202,-1.26811 h -0.37485 c -0.10327,0 -0.18692,-0.0837 -0.18692,-0.18691 v -0.39241 c 0,-0.10327 0.0837,-0.18692 0.18692,-0.18692 h 4.38158 c 0.10326,0 0.18794,0.0836 0.18794,0.18692 v 0.39241 c 0,0.10326 -0.0847,0.18691 -0.18794,0.18691 h -0.37382 c -1.04403,0 -1.36209,0.49671 -1.36209,2.12831 v 21.05182 c 0,0.10327 -0.0836,0.18691 -0.1869,0.18691"
       id="path225354" />
    <path
       inkscape:connector-curvature="0"
       style="fill:#d71c1e;fill-opacity:1;fill-rule:nonzero;stroke:none;stroke-width:0.26436114"
       d="m -241.21125,188.23065 h -13.2511 c -0.10327,0 -0.18692,-0.0836 -0.18692,-0.18691 v -0.39241 c 0,-0.10326 0.0837,-0.18794 0.18692,-0.18794 h 1.41577 v -22.59978 h -1.41577 c -0.10327,0 -0.18692,-0.0837 -0.18692,-0.18691 v -0.39241 c 0,-0.10327 0.0837,-0.18692 0.18692,-0.18692 h 13.2511 c 0.1043,0 0.18794,0.0836 0.18794,0.18692 v 9.04714 c 0,0.1043 -0.0836,0.18794 -0.18794,0.18794 h -0.64129 c -0.10016,0 -0.18278,-0.0795 -0.1869,-0.18071 -0.0578,-1.56242 -0.35215,-3.1775 -0.90049,-4.93715 -0.71459,-2.34828 -2.14587,-3.5379 -4.25559,-3.5379 h -0.66709 v 10.55482 c 0.6609,-0.0403 1.18342,-0.2974 1.59235,-0.78275 0.61031,-0.84885 1.0306,-2.25637 1.23919,-4.17402 l 0.0434,-0.44507 c 0.008,-0.096 0.0898,-0.16936 0.18587,-0.16936 h 0.60308 c 0.10326,0 0.18795,0.0837 0.18795,0.18691 v 11.72483 c 0,0.10327 -0.0847,0.18795 -0.18795,0.18795 h -0.53904 c -0.0961,0 -0.17763,-0.0744 -0.18589,-0.17039 -0.21582,-2.33382 -0.43475,-3.3417 -1.30734,-4.711 -0.31393,-0.50807 -0.8757,-0.79412 -1.6316,-0.8344 v 11.23019 c 1.91662,-0.0496 3.28901,-0.87673 4.08003,-2.45876 0.84161,-1.50975 1.42714,-3.82188 1.74416,-6.88165 0.009,-0.095 0.0899,-0.1673 0.18588,-0.1673 h 0.64129 c 0.1043,0 0.18794,0.0837 0.18794,0.18692 v 9.90321 c 0,0.10327 -0.0836,0.18691 -0.18794,0.18691"
       id="path225356" />
    <path
       inkscape:connector-curvature="0"
       style="fill:#d71c1e;fill-opacity:1;fill-rule:nonzero;stroke:none;stroke-width:0.26436114"
       d="m -263.5477,188.23065 h -6.41076 c -0.1043,0 -0.18794,-0.0836 -0.18794,-0.18691 v -0.39241 c 0,-0.10326 0.0836,-0.18794 0.18794,-0.18794 h 1.41475 v -11.59265 h -1.41475 c -0.1043,0 -0.18794,-0.0847 -0.18794,-0.18795 v -0.42752 c 0,-0.10327 0.0836,-0.18691 0.18794,-0.18691 h 1.41475 v -10.20475 h -1.41475 c -0.1043,0 -0.18794,-0.0837 -0.18794,-0.18691 v -0.39241 c 0,-0.10327 0.0836,-0.18692 0.18794,-0.18692 h 6.41076 c 2.08701,0 3.60295,0.29948 4.63871,0.91701 3.00194,1.82264 3.61741,5.3688 3.61741,10.13453 v 1.03266 c 0,3.84873 -0.11773,6.56875 -1.68221,9.21443 -0.78275,1.45296 -2.04879,2.32245 -3.86834,2.65394 -0.66091,0.11979 -1.57171,0.18071 -2.70557,0.18071 m 0.18794,-12.35991 v 11.59161 c 2.26566,-0.0269 2.67047,-0.55763 2.67047,-1.64296 v -19.27564 c 0,-1.08533 -0.41824,-1.65019 -2.67047,-1.67911 v 10.20372 h 1.7359 c 0.10326,0 0.18795,0.0836 0.18795,0.18691 v 0.42752 c 0,0.10327 -0.0847,0.18795 -0.18795,0.18795 z m 0,0"
       id="path225358" />
    <path
       inkscape:connector-curvature="0"
       style="fill:#d71c1e;fill-opacity:1;fill-rule:nonzero;stroke:none;stroke-width:0.26436114"
       d="m -294.37263,188.23065 h -6.73294 c -0.10327,0 -0.18692,-0.0836 -0.18692,-0.18691 v -0.39241 c 0,-0.10326 0.0836,-0.18794 0.18692,-0.18794 h 1.41578 v -22.59978 h -1.41578 c -0.10327,0 -0.18692,-0.0837 -0.18692,-0.18691 v -0.39241 c 0,-0.10327 0.0836,-0.18692 0.18692,-0.18692 h 7.05307 c 4.9103,0 7.35048,2.03951 7.35048,5.74366 0,2.29354 -0.62992,3.97781 -2.39371,5.00634 -0.52046,0.31497 -1.27947,0.60514 -2.26359,0.86537 3.2663,0.84782 4.92166,2.78922 4.92166,5.77671 0,2.10146 -0.66916,3.74339 -1.9889,4.87932 -1.49323,1.25365 -3.43773,1.86188 -5.94607,1.86188 m -0.13321,-23.36704 v 10.38237 c 2.10456,-0.009 2.72416,-0.19311 2.72416,-1.23713 v -7.80072 c 0,-0.87156 -0.26023,-1.34452 -1.62954,-1.34452 z m 0,22.60081 0.50704,0.001 c 1.49116,0 2.21712,-0.48948 2.21712,-1.49736 v -8.54009 c 0,-0.95211 -0.65574,-1.41474 -2.00336,-1.41474 -0.29947,0 -0.55247,0 -0.7208,0.0124 z m 0,0"
       id="path225360" />
    <path
       inkscape:connector-curvature="0"
       style="fill:#d71c1e;fill-opacity:1;fill-rule:nonzero;stroke:none;stroke-width:0.26436114"
       d="m -317.2884,188.23065 h -12.9888 c -0.10327,0 -0.18795,-0.0836 -0.18795,-0.18691 v -0.39241 c 0,-0.10326 0.0847,-0.18794 0.18795,-0.18794 h 1.41577 v -22.59978 h -1.41577 c -0.10327,0 -0.18795,-0.0837 -0.18795,-0.18691 v -0.39241 c 0,-0.10327 0.0847,-0.18692 0.18795,-0.18692 h 8.60206 c 0.10326,0 0.18691,0.0836 0.18691,0.18692 v 0.39241 c 0,0.10326 -0.0837,0.18691 -0.18691,0.18691 h -2.00337 v 22.59874 c 2.51763,-0.0269 3.22914,-0.62166 3.92515,-1.99716 0.86331,-1.70389 1.3373,-3.57301 1.6378,-6.4531 l 0.0527,-0.56796 c 0.009,-0.0971 0.0898,-0.17039 0.18691,-0.17039 h 0.58758 c 0.1043,0 0.18795,0.0837 0.18795,0.18794 v 9.58206 c 0,0.10327 -0.0836,0.18691 -0.18795,0.18691"
       id="path225362" />
    <path
       inkscape:connector-curvature="0"
       style="fill:#d71c1e;fill-opacity:1;fill-rule:nonzero;stroke:none;stroke-width:0.26436114"
       d="m -337.11652,188.51567 c -2.00852,0 -3.06184,-0.80031 -3.72584,-1.41888 -0.664,-0.61856 -0.8158,-0.47812 -1.3786,0.0578 -0.2024,0.19311 -0.84884,1.05641 -0.84884,1.05641 -0.0269,0.0124 -0.0547,0.0196 -0.0847,0.0196 h -0.69395 c -0.10327,0 -0.18795,-0.0836 -0.18795,-0.18691 v -10.04572 c 0,-0.10326 0.0847,-0.18691 0.18795,-0.18691 h 0.69395 c 0.0919,0 0.17039,0.0661 0.18484,0.15593 l 0.0537,0.32116 c 0.11875,1.14626 0.3511,2.39577 0.69085,3.72481 0.39034,1.52214 0.94179,2.80884 1.6853,3.93237 0.7714,1.16587 1.71629,1.7328 2.88939,1.7328 1.40442,0 2.16342,-1.13386 2.16342,-2.19956 0,-1.44779 -0.28811,-2.42159 -1.09875,-3.71964 -0.39551,-0.71461 -0.7053,-1.22577 -1.00994,-1.66672 -0.16729,-0.28708 -0.43992,-0.67639 -0.8189,-1.21441 -0.24164,-0.34594 -0.52356,-0.74661 -0.83852,-1.20924 -1.06261,-1.45193 -2.08908,-2.92863 -3.04739,-4.38365 -0.93971,-1.46018 -1.52214,-3.1207 -1.52214,-4.33408 0,-0.33871 0,-0.56176 0.062,-0.76623 0.32426,-2.10663 2.46806,-4.37229 5.7891,-4.37229 1.04712,0 2.00646,0.40068 2.85324,1.18963 0,0 0.12909,0.12598 0.18175,0.1518 0.28914,0.13838 0.822,-0.0661 1.10288,-0.26436 0.4172,-0.29431 0.90564,-0.7714 0.90564,-0.7714 0.0269,-0.0134 0.0558,-0.0206 0.0857,-0.0206 h 0.64129 c 0.1043,0 0.18794,0.0837 0.18794,0.18692 v 9.08431 c 0,0.1043 -0.0836,0.18794 -0.18794,0.18794 h -0.64129 c -0.0991,0 -0.17658,-0.0836 -0.1869,-0.18277 -0.14665,-1.40752 -0.3222,-2.54861 -0.81581,-4.23288 -0.46573,-1.5872 -1.55002,-4.5623 -4.07281,-4.5623 -1.17104,0 -1.7896,0.66194 -1.7896,1.91456 0,0.8633 0.31496,1.82574 0.93559,2.85944 0.68878,1.1669 1.76378,2.74377 3.19505,4.68724 l 1.85879,2.55274 c 0.36659,0.52356 0.78172,1.11734 1.19892,1.84743 0.99342,1.55725 1.52111,3.10727 1.52111,4.47452 0,1.4736 -0.52047,2.78715 -1.54589,3.90139 -0.98103,1.12663 -2.52073,1.69976 -4.57263,1.69976"
       id="path225364" />
    <path
       inkscape:connector-curvature="0"
       style="fill:#d71c1e;fill-opacity:1;fill-rule:nonzero;stroke:none;stroke-width:0.26436114"
       d="m -352.5517,188.52083 c -2.35963,0 -4.14097,-1.03885 -5.29342,-3.08765 -1.2175,-2.3018 -1.45398,-5.03216 -1.46534,-9.26504 0.0114,-4.237 0.24784,-6.96736 1.46328,-9.26399 1.15451,-2.05293 2.93585,-3.09179 5.29548,-3.09179 1.9476,0 3.4336,0.6103 4.41876,1.81335 2.05706,2.43811 2.34001,5.82937 2.34001,9.13079 v 2.81916 c 0,3.30245 -0.28295,6.69371 -2.34208,9.13285 -0.98309,1.20202 -2.46909,1.81232 -4.41669,1.81232 m -0.0144,-23.94224 c -1.24229,0 -1.33936,1.16484 -1.33936,1.52215 0,0.1425 -0.003,0.42339 -0.005,0.66606 -0.002,0.18175 -0.004,0.34181 -0.004,0.40274 v 17.99308 c 0,0.062 0.002,0.22099 0.004,0.40274 0.002,0.24267 0.005,0.52356 0.005,0.66606 0,0.35731 0.0971,1.52214 1.33936,1.52214 1.2774,0 1.37654,-1.16483 1.37654,-1.52214 v -20.13068 c 0,-0.35731 -0.0991,-1.52215 -1.37654,-1.52215"
       id="path225366" />
    <path
       inkscape:connector-curvature="0"
       style="fill:#d71c1e;fill-opacity:1;fill-rule:nonzero;stroke:none;stroke-width:0.26436114"
       d="m -308.97341,188.52083 c -2.3586,0 -4.13994,-1.03885 -5.29239,-3.08765 -1.21854,-2.3018 -1.45399,-5.03216 -1.46535,-9.26504 0.0114,-4.237 0.24681,-6.96736 1.46329,-9.26399 1.15451,-2.05293 2.93585,-3.09179 5.29445,-3.09179 1.94759,0 3.43462,0.6103 4.41978,1.81335 2.05603,2.43811 2.34001,5.82937 2.34001,9.13079 v 2.81916 c 0,3.30245 -0.28398,6.69371 -2.34207,9.13285 -0.9831,1.20202 -2.47013,1.81232 -4.41772,1.81232 m -0.0134,-23.94224 c -1.24332,0 -1.33936,1.16484 -1.33936,1.52215 0,0.1425 -0.003,0.42339 -0.005,0.66606 -0.002,0.18175 -0.004,0.34181 -0.004,0.40274 v 17.99308 c 0,0.062 0.002,0.22099 0.004,0.40274 0.002,0.24267 0.005,0.52356 0.005,0.66606 0,0.35731 0.096,1.52214 1.33936,1.52214 1.27637,0 1.37551,-1.16483 1.37551,-1.52214 v -20.13068 c 0,-0.35731 -0.0991,-1.52215 -1.37551,-1.52215"
       id="path225368" />
    <path
       inkscape:connector-curvature="0"
       style="fill:#d71c1e;fill-opacity:1;fill-rule:nonzero;stroke:none;stroke-width:0.26436114"
       d="m -278.0948,188.52083 c -2.35963,0 -4.13993,-1.03885 -5.29238,-3.08765 -1.21854,-2.3018 -1.45502,-5.03216 -1.46638,-9.26504 0.0114,-4.237 0.24784,-6.96736 1.46328,-9.26399 1.15555,-2.05293 2.93585,-3.09179 5.29548,-3.09179 1.9476,0 3.43463,0.6103 4.41979,1.81335 2.05603,2.43811 2.34001,5.82937 2.34001,9.13079 v 2.81916 c 0,3.30142 -0.28398,6.69371 -2.34208,9.13285 -0.98309,1.20202 -2.47012,1.81232 -4.41772,1.81232 m -0.0144,-23.94224 c -1.24229,0 -1.33936,1.16484 -1.33936,1.52215 0,0.1425 -0.002,0.42339 -0.005,0.66606 -0.002,0.18175 -0.003,0.34181 -0.003,0.40274 v 17.99308 c 0,0.062 0.001,0.22099 0.003,0.40274 0.003,0.24267 0.005,0.52356 0.005,0.66606 0,0.35731 0.0971,1.52214 1.33936,1.52214 1.2774,0 1.37654,-1.16483 1.37654,-1.52214 v -20.13068 c 0,-0.35731 -0.0991,-1.52215 -1.37654,-1.52215"
       id="path225370" />
    <path
       inkscape:connector-curvature="0"
       style="fill:#d71c1e;fill-opacity:1;fill-rule:nonzero;stroke:none;stroke-width:0.26436114"
       d="m -206.73278,164.86361 c 2.10974,0 3.54204,1.18962 4.25664,3.5379 0.54834,1.75965 0.84264,3.37473 0.89944,4.93715 0.004,0.1012 0.0867,0.18071 0.18795,0.18071 h 0.64024 c 0.10431,0 0.18794,-0.0836 0.18794,-0.18794 v -9.04714 c 0,-0.10327 -0.0836,-0.18692 -0.18794,-0.18692 h -13.25006 l -0.0279,0.005 -0.0279,-0.005 h -8.60207 c -0.1043,0 -0.18794,0.0836 -0.18794,0.18692 v 0.39241 c 0,0.10326 0.0836,0.18691 0.18794,0.18691 h 2.00234 v 19.26118 l 0.002,1.3311 c 0.005,1.10392 0.008,1.76999 -0.2623,2.04157 -0.14869,0.14974 -0.41719,0.21583 -0.86949,0.21583 -1.72454,0 -3.63497,-1.09875 -3.9396,-2.63018 0.46676,0.34697 0.86537,0.4967 1.6946,0.5122 1.46431,0 2.48457,-0.86021 2.53827,-2.14691 0,-1.30528 -1.04298,-2.21815 -2.54137,-2.21815 -1.65639,0.0351 -2.72623,1.08429 -2.72623,2.67562 0,1.49219 0.43681,2.59404 1.33729,3.37061 0.97793,0.83335 2.09217,1.23919 3.40572,1.23919 2.36169,0 4.09657,-0.54628 5.15711,-1.62541 1.16071,-1.21544 1.38789,-2.63948 1.38789,-4.68828 v -17.33837 h 1.41579 l 0.0279,-0.006 0.0279,0.006 h 1.41475 v 22.59978 h -1.41475 c -0.10429,0 -0.18794,0.0847 -0.18794,0.18794 v 0.39241 c 0,0.10327 0.0837,0.18691 0.18794,0.18691 h 13.25008 c 0.10429,0 0.18794,-0.0836 0.18794,-0.18691 v -9.90321 c 0,-0.10327 -0.0837,-0.18692 -0.18794,-0.18692 h -0.64025 c -0.096,0 -0.17659,0.0723 -0.18691,0.1673 -0.316,3.05977 -0.90152,5.3719 -1.74417,6.88165 -0.79102,1.58203 -2.16239,2.40919 -4.08004,2.45876 v -11.23019 c 0.75591,0.0403 1.31768,0.32633 1.63161,0.8344 0.87259,1.3693 1.09152,2.37718 1.30734,4.711 0.009,0.096 0.0898,0.17039 0.18692,0.17039 h 0.538 c 0.10431,0 0.18795,-0.0847 0.18795,-0.18795 v -11.72483 c 0,-0.10326 -0.0836,-0.18691 -0.18795,-0.18691 h -0.60307 c -0.096,0 -0.17658,0.0733 -0.18588,0.16936 l -0.0423,0.44507 c -0.20962,1.91765 -0.62889,3.32517 -1.23918,4.17402 -0.40997,0.48535 -0.93249,0.74248 -1.5934,0.78275 v -10.55482 z m 0,0"
       id="path225372" />
  </g>
</svg>
