<?xml version="1.0" encoding="utf-8"?>
<!-- Generator: Adobe Illustrator 16.0.0, SVG Export Plug-In . SVG Version: 6.00 Build 0)  -->
<!DOCTYPE svg PUBLIC "-//W3C//DTD SVG 1.1//EN" "http://www.w3.org/Graphics/SVG/1.1/DTD/svg11.dtd">
<svg version="1.1" id="Layer_1" xmlns="http://www.w3.org/2000/svg" xmlns:xlink="http://www.w3.org/1999/xlink" x="0px" y="0px"
	 width="291px" height="98px" viewBox="0 0 291 98" enable-background="new 0 0 291 98" xml:space="preserve">
<path d="M22.791,82.08c-3.216,0-4.154-1.742-4.154-5.092V24.354H8.449v52.634c0,3.35-1.072,5.092-4.154,5.1
	c-3.217,0-4.29-1.742-4.29-5.092V21.144c0-3.211,1.475-4.683,4.691-4.683h17.693c3.217,0,4.7,1.5,4.7,4.683v55.845
	C27.081,80.3,26,82.1,22.8,82.08H22.791z M40.885,26.093c0.806-6.823,4.022-10.302,10.321-10.302c6.166,0,9.5,3.5,10.3,10.302
	l4.425,40.843c1.205,11.657-7.775,15.814-14.745,15.814s-15.95-4.157-14.877-15.814L40.885,26.093z M51.206,23.686
	c-1.34,0-1.743,1.071-2.01,2.943L44.64,67.738c-0.404,5.1,2.9,7,6.6,7c3.62,0,6.97-1.873,6.568-6.969L53.249,26.66
	c-0.3-1.86-0.749-2.96-2.049-2.974H51.206z M99.458,82.1c-3.217,0-4.291-1.742-4.291-5.092V24.354h-6.434
	c-4.153,0-3.886,3.88-3.886,5.755v45.805c0,3.754-2.681,6.166-6.166,6.166h-4.156c-2.949,0-4.422-0.805-4.422-3.889
	c0-3.08,1.474-3.887,4.422-3.887h2.011V30.109c0-4.307,2.123-5.257,4.98-5.755h-6.992c-2.949,0-4.422-0.937-4.422-4.014
	c0-2.943,1.474-3.88,4.422-3.88h24.395c3.083,0,4.7,1.5,4.7,4.683v55.845C103.613,80.3,102.7,82.1,99.5,82.08h-0.042V82.1z
	 M138.461,82.08c-3.216,0-4.289-1.742-4.289-5.092V37.2l-10.187,8v31.761c0,3.35-0.937,5.092-4.154,5.092
	c-3.218,0-4.291-1.742-4.291-5.092V21.144c0-3.211,1.072-4.683,4.291-4.683c3.217,0,4.2,1.5,4.2,4.683v13.514l10.187-8.029v-5.485
	c0-3.211,1.073-4.683,4.289-4.683c3.083,0,4.2,1.5,4.2,4.7v55.845C142.615,80.3,141.5,82.1,138.5,82.08H138.461z M165.534,76.988
	c0,3.35-0.938,5.092-4.153,5.1c-3.218,0-4.158-1.742-4.158-5.092V24.354h-4.421c-3.217,0-4.825-0.937-4.825-4.014
	c0-2.943,1.608-3.88,4.825-3.88h17.291c3.218,0,4.7,0.9,4.7,3.88c0,3.077-1.473,4.014-4.688,4.014h-4.56v52.634H165.534z
	 M207.219,76.988c0,3.35-1.07,5.092-4.287,5.1c-3.219,0-4.154-1.742-4.154-5.092V37.2l-10.188,8.027v31.761
	c0,3.35-1.075,5.092-4.288,5.092c-3.22,0-4.156-1.742-4.156-5.092V21.144c0-3.211,0.938-4.683,4.156-4.683
	c3.213,0,4.301,1.5,4.301,4.683v13.514l10.188-8.029v-5.485c0-3.211,0.938-4.683,4.154-4.683s4.301,1.5,4.301,4.683v55.844H207.219z
	 M237.775,75.914V46.968c0-4.149-0.937-6.156-5.09-6.156h-5.229v36.177c0,3.35-0.938,5.092-4.155,5.092
	c-3.214,0-4.154-1.742-4.154-5.092V21.144c0-3.211,0.94-4.683,4.154-4.683c3.219,0,4.2,1.5,4.2,4.683v11.908h5.229
	c4.153,0,5.09-1.873,5.09-6.021v-4.416c0-3.479,2.281-6.155,5.766-6.155h4.827c2.948,0,4.601,0.9,4.601,3.88
	c0,3.077-1.606,4.014-4.556,4.014h-2.146v5.755c0,4.949-3.084,6.555-6.436,6.8c3.352,0.3,6.4,2,6.4,6.958v30.416h2.146
	c2.948,0,4.601,0.8,4.601,3.887c0,3.083-1.606,3.889-4.556,3.889h-4.827c-3.584,0.041-5.841-2.259-5.841-6.145H237.775z
	 M290.866,76.988c0,3.35-1.075,5.092-4.157,5.1c-3.217,0-4.288-1.742-4.288-5.092V40.812H272.1v35.103
	c0,3.754-2.683,6.166-6.164,6.166h-4.153c-3.084,0-4.427-0.806-4.427-3.888s1.343-3.887,4.427-3.887h1.872V30.109
	c0-4.283,2.548-5.369,5.113-5.755h-6.985c-3.084,0-4.427-0.937-4.427-4.014c0-2.943,1.343-3.88,4.427-3.88h24.258
	c3.216,0,4.8,1.5,4.8,4.683v55.845H290.866z M282.421,24.354h-6.569c-4.021,0-3.752,3.88-3.752,5.755v2.942h10.321V24.354z"/>
</svg>
